<?xml version="1.0" encoding="utf-8"?>
<!-- Generator: Adobe Illustrator 21.0.2, SVG Export Plug-In . SVG Version: 6.00 Build 0)  -->
<svg version="1.1" id="Layer_1" xmlns="http://www.w3.org/2000/svg" xmlns:xlink="http://www.w3.org/1999/xlink" x="0px" y="0px"
	 viewBox="0 0 24 24" style="enable-background:new 0 0 24 24;" xml:space="preserve">
<style type="text/css">
	.st0{fill:url(#SVGID_1_);}
	.st1{fill:#FFFFFF;}
	.st2{fill:url(#SVGID_2_);}
	.st3{fill:none;}
	.st4{fill:url(#SVGID_3_);}
</style>
<linearGradient id="SVGID_1_" gradientUnits="userSpaceOnUse" x1="12.1059" y1="2" x2="12.1059" y2="26" gradientTransform="matrix(1 0 0 -1 0 26)">
	<stop  offset="0" style="stop-color:#006EFF"/>
	<stop  offset="0.9983" style="stop-color:#588DFF"/>
</linearGradient>
<path class="st0" d="M0.1,0h24v24h-24V0z"/>
<path class="st3" d="M0,0h24v24H0V0z"/>
<path class="st1" d="M18.5,6H8.9v1.5h9.6V6z M19.2,13.5V12l-0.8-3.8H6.4L5.7,12v1.5h0.8v4.5H14v-4.5h3v4.5h1.5v-4.5H19.2z
	 M12.5,16.6H7.9v-3h4.5V16.6z M-8223,6H8160 M-8223,18.1H8160 M8,6H6.4v1.5H8V6z"/>
</svg>
